<svg xmlns="http://www.w3.org/2000/svg" xmlns:xlink="http://www.w3.org/1999/xlink" width="255" height="48" viewBox="0 0 255 48">
    <defs>
        <path id="a" d="M0 0h93v48H0z"/>
    </defs>
    <g fill="none" fill-rule="evenodd">
        <mask id="b" fill="#fff">
            <use xlink:href="#a"/>
        </mask>
        <path fill="#FCBD4D" d="M91.46 0c-.738 0-1.893 1.014-2.285 1.308-1.34 1.003-2.595 2.123-3.824 3.258-.483.447-.962.898-1.435 1.355-.19.183-.281.26-.396.26-.104 0-.228-.065-.465-.171a17.528 17.528 0 0 0-1.888-.721 17.549 17.549 0 0 0-5.295-.814 17.597 17.597 0 0 0-5.624.92c-.445.15-2.093 1.058-2.66 1.058-.071 0-.125-.014-.158-.046a93.69 93.69 0 0 0-2.613-2.455c-1.134-1.025-2.29-2.04-3.537-2.928C60.933.776 60.003.005 59.37.005a.546.546 0 0 0-.349.11c-.64.509-.736 1.813-.842 2.544-.229 1.59-.274 3.21-.237 4.813.042 1.822.204 3.649.551 5.44.154.793.344 1.58.599 2.349.115.348.243.693.39 1.03-.217.7-.387 1.415-.506 2.139-.706 4.268.41 8.698 2.991 12.163a17.005 17.005 0 0 0 4.4 4.107c.187.12 1.926 1.08 1.916 1.107l-.275.705c-.907 2.33-2.505 5.784-3.412 8.113-.026.068-.12.1-.27.1-1.655 0-9.804-2.693-12.543-5.427 1.93-1.521 3.598-2.522 4.045-5.106.255-1.478-.746-2.774-2.179-3.128a2.819 2.819 0 0 0-.683-.083c-1.167 0-2.269.702-3.065 1.527-.797-.826-1.902-1.527-3.072-1.527-.226 0-.455.026-.684.083-1.433.354-2.436 1.65-2.179 3.128.441 2.543 1.6 3.649 3.547 5.106-3.297 3.078-11.793 5.82-12.545 5.82-.03 0-.048-.005-.052-.017l-1.328-3.44-1.403-3.635-.424-1.097c-.188-.488.032-.4.525-.696 3.632-2.181 6.303-5.758 7.486-9.809.095-.325.32-.544.386-.845 1.04 1.555 2.467 3.181 4.352 3.681.261.07.529.103.795.103 1.101 0 2.173-.581 2.605-1.644 1.042-2.561-.493-5.99-1.683-8.25-4.261-8.094-12.606-15.165-22.175-15.165-9.57 0-17.962 7.278-22.143 15.381C.77 21.897-.669 25.234.344 27.72c.432 1.063 1.506 1.645 2.608 1.645.266 0 .534-.034.794-.104 2.1-.556 3.112-2.358 4.558-3.758a17.304 17.304 0 0 0 4.289 7.956c.245.258 2.734 2.7 2.734 2.7s-2.134 6.546-3.201 9.334C16.969 47.106 22.092 48 27.206 48c3.633 0 7.26-.45 10.78-1.415a38.1 38.1 0 0 0 11.472-5.313c.218-.15.33-.227.441-.227.11 0 .22.072.433.219a37.502 37.502 0 0 0 6.883 3.753C62.1 47.054 67.31 47.98 72.536 47.98c4.074 0 8.158-.562 12.115-1.597.278-.073 2.941-.828 2.922-.878l-.229-.587-1.201-3.089-2.368-6.09c-.028-.07 2.717-1.789 3.04-2.049a16.87 16.87 0 0 0 3.282-3.504A16.14 16.14 0 0 0 93 20.99c0-1.238-.149-2.475-.439-3.679a16.1 16.1 0 0 0-.523-1.736c-.104-.286-.243-.465-.154-.762.082-.276.157-.554.226-.834.466-1.894.68-3.852.762-5.798.076-1.77.048-3.562-.185-5.32-.099-.75-.183-2.282-.899-2.77A.573.573 0 0 0 91.46 0" mask="url(#b)"/>
        <g fill="#221E1F">
            <path d="M185.014 47.03h6.802V18.896h-6.802zM143.234 47.03h6.801V18.896h-6.801zM124.838 18.896c5.913 0 12.315 3.215 13.416 10.827h-7.177c-1.02-2.89-3.18-4.192-6.239-4.192-4.282 0-7.095 3.215-7.095 7.937 0 4.193 2.772 7.856 7.095 7.897 3.099 0 5.587-1.547 6.361-4.6h7.177C137.316 44.825 130.914 48 124.838 48c-7.258.04-14.599-4.844-14.64-14.532.041-9.688 7.382-14.572 14.64-14.572M169.104 25.326c-1.678-.04-3.476 0-5.115 0v8.039h5.115c3.916 0 4.156-7.999 0-8.039zM156.837 47.03V18.896h12.307c13.387.04 13.387 20.94 0 20.94h-5.155v7.194h-7.152zM202.723 46.266l4.433-9.083-9.51-17.202v-1.085h8.06l5.319 10.37h.201l4.836-10.37h7.817v1.085L210.5 47.03h-7.777zM240.462 18.896c5.913 0 12.315 3.215 13.416 10.827h-7.177c-1.019-2.89-3.18-4.192-6.239-4.192-4.282 0-7.095 3.215-7.095 7.937 0 4.193 2.772 7.856 7.095 7.897 3.099 0 5.587-1.547 6.361-4.6H254C252.94 44.825 246.538 48 240.462 48c-7.259.04-14.599-4.844-14.64-14.532.041-9.688 7.381-14.572 14.64-14.572M116.162 11.994l-.115-.404-.019-.256.039-.385-.02-1.56.02-.385-.02-.238.02-1.009-.02-.275V5.978l-.019-.257.039-.366-.02-.954.02-.202v-.422l.095-.257.305-.11.248-.018.267.036.247-.018.38.018.382-.036 2.095.018.267.018.267-.036.78-.019.267.184.153.257-.038.605.038.66v2.33l-.038.256.038.239-.02.275v1.54l.02.24-.02.806.02.239v.238l.038.257v.293l-.076.24-.324.072-.38-.018-.267-.092-.172-.165-.038-.495v-.514l-.019-.293.019-.257-.019-.257.019-3.081-.019-.606.019-.256-.019-.257.019-.275-.019-.532.019-.294-.152-.22-.439-.147-.533.019-.534-.019h-.437l-.286-.018-.382.018-.437.148-.134.366-.02.79.039.66-.02.733.02.293-.02 1.981.02.22-.038.79.019.238-.02 1.026-.113.404-.343.11h-.4zM127.837 12.136l.388-.04.429-.079.245-.1.225-.138.224-.198.185-.199.286-.455.204-.516.122-.595.081-1.15V7.28l-.04-.516v-.277l-.061-.278-.021-.238-.143-.575-.266-.476-.162-.218-.225-.139-.695-.079h-.43l-.264.04-.287.099-.53.238-.226.139-.448.416-.205.337-.082.416v3.51l.021.297v.298l-.041.376.02.456.123.496.225.237.245.14.265.079.266.04.286.039h.286zm-2.737 5.67l-.164-.218-.061-.515v-.258l-.02-.317.02-.258-.02-.278.02-.297-.02-.317-.02-.872.02-.238-.02-2.479.02-.278.02-.257-.04-.317v-.813l.02-.297.02-.238-.02-.278-.02-.297v-.258l.04-.317-.04-1.23.02-.237v-.476l-.02-.258V4.8l-.062-.813.102-.316.246-.12.306.02.367.1.225.237.06.298.103.198.225-.08.245-.138.245-.199.245-.138 1.042-.417.45-.02.286-.039h.428l.573.138.244.1.43.317.183.159.143.277.123.198.102.298.082.218.102.317.102.555.102.892.02.536.02.278v.832l-.04.317-.021.258-.122.892-.123.516-.306.832-.286.476-.184.258-.307.317-.285.278-.286.158-.245.1-.225.119-.409.118-1.041.06-.265-.06-.9-.278-.265.02-.123.219v.575l-.02.317.02.258v.694l-.02.416.041.278-.02 1.07.081.872-.102.258-.245.08-.49.02-.286-.12zM133.015 13.034l-.263-.162-.15-.243.038-.285-.019-.304-.019-.264.02-.325.018-.446-.019-.244V8.61l-.019-.284.02-.305.018-2.557-.019-.224v-.324l-.019-.305-.018-.507-.038-.305.094-.243.225-.183.206.02.262-.02.244.122.169.224.056.527.019.304-.019.285.019 1.624-.019.466.038.69-.038.771.019.285-.038 1.36v.243l-.056.589.019.263.075-.04.112-.203.076-.264.075-.223.168-.548.263-.59.13-.404.132-.265.206-.527.112-.224.132-.223.112-.264.094-.263.13-.244.77-1.806.093-.264.15-.244.093-.263.094-.224.113-.263.281-.285.3-.101h.47l.243.162.15.264-.02.284.02.284-.02.589.02.284.018 3.105-.038.305v.568l.02.264-.02.873.038.263-.018.264-.02.589.038.284v.284l.02.263.018.326-.094.243-.32.122-.355.02-.263-.1-.15-.285-.017-.244-.057-.223v-.325l.018-.284-.018-.873.018-.324-.018-.793-.019-.304.019-.264v-.263l-.019-.305.037-.284-.037-.223v-.284l.019-.386v-.446l.057-.528v-.304l.018-.305v-.263l-.057-.021-.15.304-.074.325-.094.244-.187.365-.376.974-.093.203-.113.284-.187.324-.243.691-.282.63-.206.384-.956 2.274-.113.224-.224.283-.32.102-.243.06zM141.877 12.912l-.177-.183-.04-.852-.02-.284v-.568l-.02-.284.02-.346-.02-.446v-.853l-.02-.304.04-.71-.02-.264-.02-.447.04-.487v-.811l-.04-.285.02-.75-.118-.447-.317-.122-.276-.04-.277.02-.276-.02h-.316l-.258.04-.296-.141-.119-.224-.02-.264.139-.264.257-.182h.316l.395.04.83-.06.712.02.256-.02.297.06.257-.02h.277l.256-.02.317.04.276-.02.277.02.415-.02.395.102.158.284-.02.283-.118.265-.297.121-.85-.04-.315.02h-.277l-.258.163-.157.263.02.73-.02 1.036.02.324-.02 3.45.02.244-.02.304-.02.285.04.283-.02.548.04.57-.08.324-.197.102h-.514zM146.335 16.937l-.248-.15-.165-.26v-.318l.143-.28.25-.187.537-.54.123-.28.145-.206.434-.97.083-.26.103-.225.062-.298.104-.243v-.43l-.145-.745-.29-.859-.082-.223-.062-.28-.186-.504-.103-.186-.124-.504-.104-.261-.103-.243-.042-.243-.165-.503-.124-.243-.124-.504-.124-.298-.063-.187-.082-.242-.061-.28-.104-.261-.063-.243-.123-.242-.29-.97-.103-.243-.062-.28.041-.261.228-.075.455-.037.454.093.228.262.248.783.062.261.104.242.206.747.124.242.041.243.146.392.103.392.082.26.062.225.103.242.083.28.082.242.063.262.144.354.27.915.062.28.103.28.083-.02.103-.28.661-2.536.062-.3.166-.503.041-.261.373-1.194.06-.262.166-.485.041-.28.083-.26.062-.206.248-.28.27-.13h.454l.372.112.063.26-.166.486-.062.28-.082.224-.063.242-.103.28-.063.28-.144.448-.104.261-.144.504-.083.223-.124.56-.124.224-.145.485-.103.504-.206.485-.043.262-.082.26-.103.243-.042.261-.103.224-.062.242-.082.262-.083.28-.186.578-.124.522-.166.393-.062.242-.082.205-.063.262-.103.28-.061.26-.104.224-.083.243-.103.242-.248.467-.124.224-.125.26-.681.803-.207.168-.227.131-.249.186zM152.098 12.871l-.12-.244v-.283l.199-.265.375-.385.198-.264.139-.203.119-.223.138-.304.316-1.075.039-.305v-.284l.04-.305.06-.284.039-.893V7.27l.099-1.035v-.426l.02-.304.04-.244v-.304l.039-.833.04-.304.157-.244.395-.142.277-.02 1.76.02.237-.04h.277l.296-.02.277.06.277-.04.376.02.415.142.138.325.02.263-.02.427.02.69-.02.244-.02.73.04.467-.04 2.516.04.285v.263l-.02.589.02.426-.02.284.02.385-.04.285.04.325v.426l-.138.426-.238.163-.256-.041-.258.02-.256-.183-.12-.244-.019-.263-.02-.63.02-.263-.02-.69.04-.751-.02-.264-.02-1.563.02-.263v-.325l-.02-.304.04-1.137-.02-.284v-.893l-.158-.406-.238-.162h-.414l-.416.04-.257-.04h-.276l-.297.02-.237.142-.178.305-.02.284-.02.264-.02.243-.04.304v.285l-.098 1.46-.04.244-.02.61-.078.283v.324l-.04.285-.08.244-.039.304-.198.832-.198.548-.295.508-.12.263-.375.406-.574.386-.394.102zM163.571 11.992l.266-.098.245-.078.245-.158.184-.217.183-.275.124-.256.102-.256.08-.275.062-.276.02-.255.062-.335.04-.257.021-.294-.02-.315v-.453l.04-.354-.061-.807-.082-.551-.081-.275-.04-.256-.205-.512-.123-.256-.163-.196-.204-.217-.47-.276-.266-.039-.388-.02-.429.04-.51.138-.266.255-.265.335-.266.433-.04.275-.103.276-.102.531-.02.295-.041.237-.041.59.04.826v.551l.021.315.041.256.225.846.102.296.102.196.164.237.183.236.245.196.225.119.306.098.858-.02zm-1.143 1.023l-.266-.02-.49-.235-.246-.158-.265-.137-.368-.374-.162-.217-.307-.531-.204-.472-.143-.512-.164-.846-.061-.591V7.8l.061-.57.04-.532.042-.295.225-.806.122-.197.224-.551.165-.256.346-.413.246-.217.203-.138.347-.177.409-.157.409-.099.572-.019h.428l.286.04.552.176.225.098.224.138.43.335.347.433.286.492.102.276.122.216.062.275.102.296.04.236.061.295.042.571.081.55-.041.807.02.335-.02.275-.142.846-.04.217-.268.788-.121.295-.143.196-.123.296-.163.196-.225.197-.205.197-.224.177-.47.276-.53.117-.307.06h-.838l-.285-.06zM167.723 11.976l-.126-.293-.036-.366.018-.787.018-.22-.018-.274.018-1.41-.036-.347.036-1.172-.018-.237.018-.275-.036-.787.036-.788-.036-.951-.036-.293.072-.238.216-.092.233-.054h.234l.252.146.126.184.054.457v1.629l.037.366-.019.366.126.238h.234l.234-.091.414-.257.413-.292.342-.349.45-.659.109-.2.143-.22.09-.257.126-.2.072-.257.072-.238.217-.22.305-.146.252.018.252-.037.215.165.037.238-.288.696-.09.237-.126.202-.108.22-.144.2-.108.24-.144.182-.126.201-.162.22-.522.494-.18.202-.125.292.035.257.144.256.198.274.198.33.126.22.109.238.125.219.145.201.252.458.143.202.396.658.125.183.253.458.396.659v.22l-.18.11h-.27l-.289-.037-.341-.092-.27-.183-.144-.2-.252-.532-.27-.384-.126-.275-.27-.403-.27-.475-.522-.842-.395-.696-.27-.183-.341.018-.27.147-.145.311.019.787-.019.31.019.257v.256l-.037.239.037.292v.238l-.037.385.037.659-.109.292-.234.092-.25.018h-.218zM180.727 11.625l.26.02.392-.039h.801l.374-.136.148-.348.02-.717-.02-1.589.02-.232v-.29l-.02-.388v-.31l.02-.368v-.406l.018-.291-.019-.232V5.33l-.019-.252.02-.27-.113-.272-.279-.136h-.224l-.261.02-.373-.04-.373.02h-.26l-.261.136-.131.271-.019.252-.093 1.085-.056 1.123-.018.233v.27l-.168 1.124-.019.31-.335 1.317-.187.504-.112.271v.252l.205.058h.28l.373.039.429-.02zm-3.113 3.216l-.15-.271-.055-.252-.02-.252-.036-.29-.112-1.511v-.252l.13-.271.205-.136.317-.058.261-.194.168-.232.112-.233.112-.271.111-.233.28-1.084.093-.543.075-.813.037-.271.186-3.06v-.272l.038-.523.167-.29.392-.117.634.02.82-.059.522.058h.261l.298-.038.355.038.39-.019.262-.039.28.194.15.252v.271l-.02.29.038.64-.019.31v.27l.019.31-.019.66v.252l-.02.27.02.853-.02.252.039 1.123-.019.252-.02.232.039.736-.039.698.132.232.298.155.26-.039.28.174.168.35-.018.523-.113 1.162-.037.232-.018.272-.038.31-.15.232-.334.155-.28-.117-.168-.251.018-.31.02-.833.019-.213V13l-.113-.232-.28-.174-.223.02-.261-.04h-.522l-.391.059-.392-.04-.504.02-.241.04-.243-.04-.242-.02-.392.02-.41-.039-.223.059-.28.02-.26-.06-.243.04-.242.096-.13.31.018.717.037.6-.019.233-.149.29-.298.136-.298-.174zM186.105 12.871l-.12-.244v-.283l.199-.265.375-.385.198-.264.138-.203.12-.223.138-.304.316-1.075.04-.305v-.284l.039-.305.06-.284.039-.893V7.27l.099-1.035v-.426l.02-.304.04-.244v-.304l.039-.833.04-.304.157-.244.395-.142.277-.02 1.76.02.238-.04h.277l.296-.02.277.06.276-.04.376.02.414.142.139.325.02.263-.02.427.02.69-.02.244-.02.73.04.467-.04 2.516.04.285v.263l-.02.589.02.426-.02.284.02.385-.04.285.04.325v.426l-.138.426-.238.163-.256-.041-.258.02-.256-.183-.12-.244-.019-.263-.02-.63.02-.263-.02-.69.04-.751-.02-.264-.02-1.563.02-.263v-.325l-.02-.304.04-1.137-.02-.284v-.893l-.158-.406-.238-.162h-.414l-.416.04-.257-.04h-.277l-.296.02-.238.142-.177.305-.02.284-.02.264-.02.243-.04.304v.285l-.098 1.46-.04.244-.02.61-.078.283v.324l-.04.285-.08.244-.038.304-.198.832-.198.548-.296.508-.12.263-.375.406-.574.386-.394.102zM198.718 8.333l.418-.179.152-.438V6.62l-.02-.279.038-.797-.037-.458-.133-.338-.266-.16-.854-.099h-.418l-.627.06-.227.139-.229.18-.17.179-.134.199-.114.259-.057.219-.075.319.02.817.055.278.247.518.171.22.475.298.55.16.248.02.987-.02zm-3.931 4.601l.02-.219.132-.239.114-.299.133-.218.133-.259.151-.2.305-.637.21-.338.131-.2.247-.558.172-.2.018-.317-.19-.2-.247-.099-.227-.12-.304-.239-.285-.259-.152-.259-.133-.199-.095-.24-.19-.796v-.418l.02-.438.075-.538.095-.299.076-.279.114-.219.152-.239.399-.378.475-.28.209-.139.284-.06.266-.1.246-.058h.418l.305-.02.38.059h.247l.265.04h.285l.285.08.227.04.285.079.285.06.228.22.133.297.02.3-.02.298.02.399-.02.298v.658l.038.32-.038.556.02.28v3.644l-.02.3.038.258-.019.24.057.597-.02.279-.075.279-.21.12-.246-.02-.247.02-.227-.12-.19-.22-.02-.298-.056-.797.019-.618-.02-.259v-.757l.038-.397-.151-.24-.266-.12h-.285l-.266.02-.322.12-.248.279-.151.2-.152.317-.228.38-.133.278-.36.677-.229.499-.152.199-.247.518-.285.198-.303.14h-.532l-.209-.14zM206.976 12.912l-.177-.183-.04-.852-.02-.284v-.568l-.02-.284.02-.346-.02-.446v-.853l-.02-.304.04-.71-.02-.264-.02-.447.04-.487v-.811l-.04-.285.02-.75-.118-.447-.316-.122-.277-.04-.276.02-.277-.02h-.317l-.257.04-.296-.141-.119-.224-.02-.264.14-.264.256-.182h.316l.395.04.831-.06.711.02.257-.02.296.06.257-.02h.277l.257-.02.316.04.276-.02.277.02.415-.02.396.102.158.284-.02.283-.118.265-.297.121-.85-.04-.316.02h-.276l-.258.163-.158.263.02.73-.02 1.036.02.324-.02 3.45.02.244-.02.304-.02.285.04.283-.02.548.04.57-.08.324-.197.102h-.513zM213.121 12.02l1.013-.02.287-.021.267-.102.268-.04.23-.182.401-.366.115-.284.077-.264.056-.426-.038-.447-.057-.305-.096-.283-.172-.265-.4-.324-.25-.142-.267-.04-.42-.02-.402-.042-.268-.02-.305.02-.287.041-.267.081-.134.285v.568l.019.304-.02.69.02.263v.224l-.02.446.02.285.115.263.247.163.268-.04zm1.052-4.547l.267-.04.287-.082.458-.324.191-.183.116-.244.095-.243.02-.467-.02-.406-.057-.305-.154-.243-.17-.182-.25-.183-.248-.101h-.268l-.401-.041-.42.02-.249-.04h-.497l-.287.121-.114.285v.324l.019.305-.02.243.02.264-.02 1.137.135.243.247.183h.268l.249.02.803-.06zm-2.256 5.561h-.248l-.287-.122-.134-.304.02-2.01.019-.283-.02-.426-.019-.224.02-.406.019-.304-.039-.589.039-.304-.02-2.07.02-.346-.02-.283.02-.406-.039-.264.02-.61V3.82l.133-.244.268-.162.268-.04h1.854l.4.06h.65l.268.02.248.061.25.102.247.163.21.121.211.162.173.224.152.223.115.264.076.244.057.304-.018.812-.058.284-.096.325-.267.507-.382.406-.115.243.115.142.19.143.192.223.191.182.153.203.077.284.133.224.115.974-.076.65-.077.304-.19.507-.116.203-.171.203-.192.163-.21.223-.23.122-.229.101-.23.142-.248.081-.401.061h-.535l-.402-.02-.268.02-.802-.02-.516.06-.268-.04zM221.003 11.977l.233-.078.487-.235.407-.255.195-.215.155-.314.097-.353v-.255l-.019-.274.02-1.373V8.41l-.137-.333-.252-.079-1.011-.038-.272.097-.485.138-.448.313-.174.196-.175.236-.117.195-.117.255-.037.255-.04.705v.451l.04.235.193.49.156.177.233.137.272.118.389.039.407-.02zm-.99 1.059l-.273-.04-.252-.098-.252-.078-.215-.137-.213-.157-.195-.157-.272-.45-.135-.295-.136-.49-.02-.274v-.843l.039-.274.038-.255.079-.294.097-.216.097-.293.175-.236.136-.215.175-.215.194-.157.233-.236.233-.137.758-.353.292-.058.544-.079.408.02.37-.04.25.04.273-.098.155-.256-.057-.568-.04-.274-.038-.255-.078-.313-.097-.216-.156-.196-.213-.157-.214-.176-.253-.06-.407.021-.409-.04-.427.098-.37.138-.504.313-.272.06-.253-.158-.117-.156-.038-.314.155-.294.195-.157.252-.118.233-.137.505-.215.233-.02.291-.078.273-.02.796.02.291.098.39.098.35.176.193.118.213.176.332.49.116.255.116.294.117.55.078.547v.432l.039.391-.02.55-.02.234.02.275.02.843-.04.568.04.216-.04.98.04.666-.02.294.02.294.058.51-.078.313-.408.137-.504-.117-.195-.236-.04-.294-.115-.097-.156.078-.369.333-.253.177-.447.176-.505.157-.796-.04zM228.887 12.136l.388-.04.428-.079.245-.1.225-.138.225-.198.184-.199.286-.455.204-.516.122-.595.082-1.15V7.28l-.041-.516v-.277l-.06-.278-.022-.238-.143-.575-.265-.476-.163-.218-.225-.139-.694-.079h-.43l-.265.04-.286.099-.531.238-.225.139-.449.416-.204.337-.082.416v3.51l.02.297v.298l-.04.376.02.456.123.496.225.237.245.14.266.079.264.04.286.039h.287zm-2.738 5.67l-.163-.218-.061-.515v-.258l-.02-.317.02-.258-.02-.278.02-.297-.02-.317-.02-.872.02-.238-.02-2.479.02-.278.02-.257-.04-.317v-.813l.02-.297.02-.238-.02-.278-.02-.297v-.258l.04-.317-.04-1.23.02-.237v-.476l-.02-.258V4.8l-.062-.813.102-.316.245-.12.307.02.367.1.225.237.06.298.103.198.225-.08.245-.138.245-.199.246-.138 1.04-.417.45-.02.286-.039h.429l.572.138.245.1.429.317.184.159.143.277.123.198.101.298.082.218.103.317.102.555.102.892.02.536.02.278v.832l-.04.317-.021.258-.122.892-.123.516-.306.832-.286.476-.184.258-.307.317-.286.278-.285.158-.245.1-.225.119-.409.118-1.042.06-.265-.06-.899-.278-.265.02-.123.219v.575l-.02.317.02.258v.694l-.02.416.04.278-.02 1.07.082.872-.102.258-.245.08-.491.02-.286-.12zM235.036 13.034l-.262-.162-.15-.243.038-.285-.02-.304-.018-.264.018-.325.02-.446-.02-.244V8.61l-.018-.284.018-.305.02-2.557-.02-.224v-.324l-.018-.305-.019-.507-.038-.305.095-.243.224-.183.207.02.262-.02.244.122.168.224.057.527.018.304-.018.285.018 1.624-.018.466.037.69-.037.771.018.285-.038 1.36v.243l-.056.589.02.263.074-.04.112-.203.076-.264.075-.223.168-.548.263-.59.13-.404.133-.265.205-.527.112-.224.132-.223.113-.264.093-.263.13-.244.77-1.806.094-.264.15-.244.093-.263.094-.224.112-.263.282-.285.3-.101h.468l.244.162.15.264-.02.284.02.284-.02.589.02.284.019 3.105-.038.305v.568l.019.264-.02.873.039.263-.02.264-.018.589.038.284v.284l.019.263.018.326-.093.243-.32.122-.356.02-.262-.1-.15-.285-.018-.244-.057-.223v-.325l.018-.284-.018-.873.018-.324-.018-.793-.019-.304.019-.264v-.263l-.019-.305.037-.284-.037-.223v-.284l.019-.386v-.446l.057-.528v-.304l.018-.305v-.263l-.057-.021-.149.304-.075.325-.093.244-.188.365-.375.974-.094.203-.112.284-.187.324-.244.691-.281.63-.207.384-.956 2.274-.112.224-.225.283-.32.102-.243.06zM242.758 12.086l-.247-.092-.094-.311-.019-.238v-.384l-.019-.22.038-.44-.019-2.269.019-.293-.019-.238v-.768l.019-.238V6.21l-.038-.384v-.275l.038-.274-.019-.257v-.732l-.058-.274v-.22l.095-.238.19-.146.246-.037.264.018.266.11.17.256.038.77-.019.274v.256l.038.384-.019 1.227.152.292.378.11.455.02.284-.02h.794l.398.055.284-.018.397-.128.151-.275.02-.238-.038-.567.018-.238.02-.275-.02-.292V4.069l.02-.275.113-.256.36-.128.379-.019.226.184.114.256v.897l.019.237-.02.257v.86l.02.275-.02.256.02.274-.02 1.776.02.238-.02.842-.018.238.038.238v.201l-.02.293.057.732v.275l-.056.238-.209.146-.245-.036h-.247l-.284-.055-.132-.183-.038-.531-.038-.275.02-.512-.039-.257v-.237l.02-.312V8.388l-.134-.274-.284-.128-.265-.019-.434.037-1.23-.018-.266.037-.284-.02-.264.166-.152.238V8.9l.02.256-.039.366.038.916-.019.256v.257l.02.347v.293l-.114.366-.36.146z"/>
        </g>
    </g>
</svg>
